<svg width="770" height="265" viewBox="0 0 770 265" fill="none" xmlns="http://www.w3.org/2000/svg">
<path fill-rule="evenodd" clip-rule="evenodd" d="M4.18872 165.643L89.3149 58.8445L143.08 96.8927L145.542 100.813C117.773 112.854 98.3306 140.527 98.3306 172.708C98.3306 215.967 133.445 251.081 176.695 251.081C183.497 251.081 190.1 250.213 196.392 248.57C177.448 259.062 155.668 265 132.506 265C70.8189 265 18.9222 222.774 4.18872 165.643ZM198.679 172.708C216.729 172.708 231.384 187.378 231.384 205.428C231.384 223.478 216.729 238.125 198.679 238.125C180.626 238.125 165.97 223.478 165.97 205.428C165.97 187.378 180.626 172.708 198.679 172.708Z" fill="url(#paint0_linear_3991_2170)"/>
<path fill-rule="evenodd" clip-rule="evenodd" d="M25.2443 210.052C9.32548 188.317 0 161.488 0 132.5C0 59.3611 59.375 0 132.507 0C169.126 0 202.294 14.8812 226.285 38.9401L236.237 50.418C239.322 53.9858 239.84 59.1029 237.535 63.2105C235.885 66.1445 233.822 69.8297 231.576 73.8199C218.769 96.6583 194.635 110.788 168.462 110.788H122.799C79.7629 110.788 42.0104 139.495 30.5067 180.97C27.8591 190.523 26.0869 200.241 25.2443 210.052Z" fill="#5FD04F"/>
<path d="M414.688 133C414.688 126.644 409.042 122.091 402.686 122.091H361.163C354.385 122.091 348.89 127.586 348.89 134.364V134.364C348.89 141.142 354.385 146.636 361.163 146.636H385.901C383.502 160.102 371.851 168.455 357.115 168.455C338.266 168.455 324.216 152.602 324.216 133C324.216 113.398 337.924 97.5454 357.115 97.5454C366.672 97.5454 373.359 100.852 378.278 105.42C382.573 109.409 388.398 111.908 394.017 110.239V110.239C401.913 107.893 405.794 98.8243 400.39 92.608C389.915 80.559 375.073 73 357.115 73C323.873 73 296.8 99.9318 296.8 133C296.8 166.068 323.873 193 357.115 193C390.356 193 414.688 166.068 414.688 133V133Z" fill="#44A536"/>
<path d="M487.331 73C453.233 73 425.646 99.9318 425.646 133C425.646 166.068 453.233 193 487.331 193C521.43 193 549.017 166.068 549.017 133C549.017 99.9318 521.43 73 487.331 73ZM487.331 168.455C468.483 168.455 453.062 152.602 453.062 133C453.062 113.398 468.483 97.5454 487.331 97.5454C506.18 97.5454 521.601 113.398 521.601 133C521.601 152.602 506.18 168.455 487.331 168.455Z" fill="#44A536"/>
<path d="M638.009 130.102C646.063 126.352 651.888 115.443 651.888 105.727C651.888 84.25 634.411 75.7273 608.023 75.7273H571.28C567.347 75.7273 564.158 78.9159 564.158 82.8492V183.151C564.158 187.084 567.347 190.273 571.28 190.273H617.961C642.636 190.273 657.372 175.614 657.372 155.841C657.372 144.42 651.374 134.364 638.009 130.102ZM591.574 100.273H608.023C618.476 100.273 624.473 102.659 624.473 109.648C624.473 116.295 618.476 119.364 608.023 119.364H591.574V100.273ZM610.765 165.727H591.574V143.909H610.765C622.417 143.909 629.956 147.148 629.956 154.648C629.956 162.489 622.417 165.727 610.765 165.727Z" fill="#44A536"/>
<path d="M739.577 75.7273C738.308 75.7273 737.136 76.4022 736.498 77.499L712.168 119.364L687.838 77.499C687.201 76.4022 686.028 75.7273 684.759 75.7273H661.12C658.303 75.7273 656.601 78.8451 658.126 81.2149L698.46 143.909V184.931C698.46 187.881 700.852 190.273 703.802 190.273H720.535C723.485 190.273 725.876 187.881 725.876 184.931V143.909L766.211 81.2149C767.735 78.8451 766.034 75.7273 763.216 75.7273H739.577Z" fill="#44A536"/>
<defs>
<linearGradient id="paint0_linear_3991_2170" x1="58.1462" y1="134.264" x2="80.3473" y2="162.809" gradientUnits="userSpaceOnUse">
<stop stop-color="#469F39"/>
<stop offset="1" stop-color="#4AB93A"/>
</linearGradient>
</defs>
</svg>