<svg width="22" height="22" viewBox="0 0 22 22" fill="none" xmlns="http://www.w3.org/2000/svg">
<path fill-rule="evenodd" clip-rule="evenodd" d="M22 11C22 17.0751 17.0751 22 11 22C4.92487 22 0 17.0751 0 11C0 4.92487 4.92487 0 11 0C17.0751 0 22 4.92487 22 11ZM11.9857 7.85266L4.57809 10.9047L4.57736 10.9048C3.27386 11.4134 4.03689 11.8902 4.03689 11.8902C4.03689 11.8902 5.14963 12.2717 6.10333 12.5578C7.05703 12.8439 7.56578 12.526 7.56578 12.526L12.0485 9.50577C13.6381 8.42475 13.2565 9.31492 12.875 9.69644C12.0486 10.523 10.6814 11.8265 9.53689 12.8756C9.02823 13.3207 9.28251 13.7023 9.50508 13.8929C10.1522 14.4405 11.676 15.4361 12.3684 15.8884C12.5605 16.0139 12.6885 16.0976 12.7162 16.1183C12.875 16.2456 13.7643 16.8177 14.3057 16.6906C14.847 16.5635 14.9107 15.8322 14.9107 15.8322L15.7054 10.841C15.7755 10.3771 15.8455 9.92279 15.9109 9.49871C16.083 8.38262 16.2228 7.47574 16.2459 7.15324C16.3413 6.0724 15.1968 6.51744 15.1968 6.51744C15.1968 6.51744 12.7169 7.53476 11.9857 7.85266Z" fill="#3C4A3E"/>
</svg>
