<svg width="51" height="44" viewBox="0 0 51 44" fill="none" xmlns="http://www.w3.org/2000/svg">
<circle cx="41.9999" cy="8.55556" r="8.55556" fill="#434141"/>
<circle cx="8.99989" cy="8.55556" r="8.55556" fill="#434141"/>
<circle cx="42.0002" cy="8.55552" r="4.88889" fill="#F3F3F3"/>
<circle cx="9.00022" cy="8.55552" r="4.88889" fill="#F3F3F3"/>
<path fill-rule="evenodd" clip-rule="evenodd" d="M15.1125 42.2397C7.13621 39.5227 1.66602 33.9426 1.66602 27.5C1.66602 24.898 2.55827 22.4368 4.14753 20.2479C4.76495 10.312 13.0189 2.44446 23.1105 2.44446H29.1105C39.202 2.44446 47.456 10.312 48.0734 20.2479C49.6626 22.4368 50.5549 24.898 50.5549 27.5C50.5549 33.9426 45.0847 39.5227 37.1084 42.2397C34.6774 43.3694 31.9676 44 29.1105 44L26.1105 44L23.1105 44C20.2533 44 17.5435 43.3694 15.1125 42.2397Z" fill="white"/>
<path d="M26.6106 26.8889C26.6106 26.6128 26.3867 26.3889 26.1106 26.3889C25.8344 26.3889 25.6106 26.6128 25.6106 26.8889H26.6106ZM21.499 29.5284C21.2693 29.3753 20.9588 29.4374 20.8057 29.6671C20.6525 29.8969 20.7146 30.2073 20.9443 30.3605L21.499 29.5284ZM25.6106 26.8889V28.1667H26.6106V26.8889H25.6106ZM23.2798 30.3567C22.7025 30.1889 22.1012 29.9299 21.499 29.5284L20.9443 30.3605C21.6392 30.8238 22.3351 31.1235 23.0007 31.317L23.2798 30.3567ZM25.6106 28.1667C25.6106 28.8614 25.3196 29.5127 24.8771 29.9345C24.4424 30.3488 23.8795 30.5309 23.2798 30.3567L23.0007 31.317C23.9921 31.605 24.9143 31.2805 25.567 30.6584C26.2119 30.0437 26.6106 29.1289 26.6106 28.1667H25.6106Z" fill="#3F3F3F"/>
<path d="M25.6111 26.8889C25.6111 26.6128 25.835 26.3889 26.1111 26.3889C26.3873 26.3889 26.6111 26.6128 26.6111 26.8889H25.6111ZM30.7226 29.5284C30.9524 29.3753 31.2628 29.4374 31.416 29.6671C31.5692 29.8969 31.5071 30.2073 31.2774 30.3605L30.7226 29.5284ZM26.6111 26.8889V28.1667H25.6111V26.8889H26.6111ZM28.9419 30.3567C29.5192 30.1889 30.1205 29.9299 30.7226 29.5284L31.2774 30.3605C30.5825 30.8238 29.8866 31.1235 29.2209 31.317L28.9419 30.3567ZM26.6111 28.1667C26.6111 28.8614 26.9021 29.5127 27.3446 29.9345C27.7792 30.3488 28.3422 30.5309 28.9419 30.3567L29.2209 31.317C28.2296 31.605 27.3074 31.2805 26.6547 30.6584C26.0098 30.0437 25.6111 29.1289 25.6111 28.1667H26.6111Z" fill="#3F3F3F"/>
<ellipse cx="36.0501" cy="20.9387" rx="6.11111" ry="7.94444" transform="rotate(-45 36.0501 20.9387)" fill="#5D5D5D"/>
<ellipse cx="15.7779" cy="20.9388" rx="6.11111" ry="7.94444" transform="rotate(45 15.7779 20.9388)" fill="#5D5D5D"/>
<circle cx="34.6661" cy="19.5555" r="2.44444" fill="#0D0C0C"/>
<circle cx="17.5558" cy="19.5555" r="2.44444" fill="#0D0C0C"/>
<path d="M26.6777 27.7216C26.3364 27.9562 25.8859 27.9562 25.5446 27.7216L23.4607 26.2889C22.6944 25.7621 23.0012 24.5858 23.9294 24.527C24.6696 24.48 25.4495 24.4444 26.1112 24.4444C26.7728 24.4444 27.5527 24.4801 28.2929 24.527C29.221 24.5858 29.5279 25.7621 28.7615 26.2889L26.6777 27.7216Z" fill="#0D0C0C"/>
</svg>
