<svg width="22" height="22" viewBox="0 0 22 22" fill="none" xmlns="http://www.w3.org/2000/svg">
<path d="M11 0C4.92617 0 0 4.92525 0 11C0 15.8602 3.1515 19.9833 7.52308 21.4381C8.07217 21.5398 8.25 21.1988 8.25 20.9092V18.8613C5.19017 19.5268 4.55308 17.5633 4.55308 17.5633C4.05258 16.2919 3.33117 15.9537 3.33117 15.9537C2.33292 15.2707 3.40725 15.2854 3.40725 15.2854C4.51183 15.3624 5.093 16.4193 5.093 16.4193C6.07383 18.1005 7.66608 17.6147 8.294 17.3333C8.39208 16.6228 8.67717 16.137 8.9925 15.8629C6.54958 15.5833 3.98108 14.6401 3.98108 10.4262C3.98108 9.22442 4.411 8.24358 5.11408 7.47358C5.00042 7.19583 4.62367 6.07658 5.22133 4.56225C5.22133 4.56225 6.14533 4.26708 8.24725 5.68975C9.1245 5.44592 10.065 5.324 11 5.31942C11.935 5.324 12.8764 5.44592 13.7555 5.68975C15.8556 4.26708 16.7778 4.56225 16.7778 4.56225C17.3763 6.0775 16.9996 7.19675 16.8859 7.47358C17.5917 8.24358 18.018 9.22533 18.018 10.4262C18.018 14.6511 15.4449 15.5815 12.9956 15.8537C13.3898 16.1947 13.75 16.8639 13.75 17.8906V20.9092C13.75 21.2016 13.926 21.5453 14.4843 21.4372C18.8522 19.9806 22 15.8583 22 11C22 4.92525 17.0748 0 11 0Z" fill="#3C4A3E"/>
</svg>
