<svg width="22" height="22" viewBox="0 0 22 22" fill="none" xmlns="http://www.w3.org/2000/svg">
<path d="M14.6609 14.593C13.5771 14.593 12.6836 13.5847 12.6836 12.3457C12.6836 11.1067 13.5591 10.0984 14.6609 10.0984C15.7627 10.0984 16.655 11.1165 16.6382 12.3457C16.6213 13.5749 15.7711 14.593 14.6609 14.593ZM7.3515 14.593C6.26774 14.593 5.37424 13.5847 5.37424 12.3457C5.37424 11.1067 6.24968 10.0984 7.3515 10.0984C8.45333 10.0984 9.34563 11.1165 9.32877 12.3457C9.31191 13.5749 8.45333 14.593 7.35271 14.593H7.3515ZM18.6214 4.40876C17.1954 3.74528 15.6904 3.27218 14.1443 3.00131C14.1302 2.99848 14.1156 3.00027 14.1026 3.00641C14.0897 3.01256 14.0789 3.02274 14.072 3.03549C13.8671 3.4127 13.681 3.80015 13.5145 4.19636C11.8478 3.93977 10.1525 3.93977 8.48584 4.19636C8.31839 3.79915 8.12945 3.4116 7.91988 3.03549C7.91259 3.02312 7.90181 3.01325 7.88893 3.00715C7.87605 3.00106 7.86166 2.99903 7.84763 3.00131C6.30134 3.27162 4.79632 3.74474 3.37048 4.40876C3.35848 4.4141 3.34839 4.42305 3.34158 4.4344C0.490074 8.7532 -0.29144 12.9658 0.0902856 17.1296C0.0913791 17.1398 0.0945037 17.1498 0.0994691 17.1588C0.104434 17.1678 0.111141 17.1757 0.119188 17.1821C1.77946 18.4289 3.63664 19.3808 5.61146 19.997C5.62535 20.0012 5.64018 20.001 5.65396 19.9964C5.66773 19.9918 5.6798 19.9831 5.68853 19.9714C6.11262 19.386 6.48839 18.7662 6.81203 18.1183C6.81634 18.1094 6.81876 18.0997 6.81914 18.0898C6.81951 18.0799 6.81783 18.07 6.81419 18.0608C6.81056 18.0516 6.80506 18.0433 6.79805 18.0364C6.79104 18.0295 6.78267 18.0241 6.77349 18.0207C6.18081 17.7908 5.60703 17.5136 5.05754 17.1918C5.04692 17.186 5.03795 17.1775 5.03147 17.1672C5.02499 17.1569 5.0212 17.1451 5.02048 17.1328C5.01976 17.1206 5.02212 17.1084 5.02734 17.0974C5.03256 17.0864 5.04046 17.0768 5.05031 17.0698C5.17073 16.9819 5.28152 16.8915 5.3911 16.7988C5.40083 16.7905 5.41267 16.7853 5.42523 16.7835C5.4378 16.7818 5.45059 16.7837 5.46214 16.789C9.06144 18.4553 12.9594 18.4553 16.5165 16.789C16.5281 16.7833 16.5411 16.781 16.5539 16.7826C16.5667 16.7841 16.5788 16.7893 16.5888 16.7976C16.6984 16.8891 16.814 16.9819 16.9308 17.0685C16.9407 17.0755 16.9487 17.0849 16.954 17.0959C16.9593 17.1069 16.9618 17.1191 16.9612 17.1313C16.9606 17.1435 16.9569 17.1553 16.9505 17.1657C16.9442 17.1761 16.9353 17.1847 16.9248 17.1906C16.3786 17.5134 15.8066 17.789 15.2148 18.0146C15.2056 18.0181 15.1972 18.0236 15.1902 18.0306C15.1832 18.0377 15.1778 18.0462 15.1742 18.0555C15.1707 18.0649 15.1692 18.0749 15.1697 18.0848C15.1703 18.0948 15.1729 18.1046 15.1775 18.1135C15.506 18.7581 15.8807 19.3774 16.2986 19.9665C16.307 19.9786 16.319 19.9876 16.3328 19.9925C16.3467 19.9973 16.3616 19.9976 16.3756 19.9933C18.3538 19.3791 20.2141 18.4271 21.8763 17.1784C21.8845 17.1724 21.8912 17.1648 21.8962 17.1559C21.9012 17.1471 21.9043 17.1373 21.9052 17.1271C22.364 12.3176 21.137 8.1392 18.654 4.43196C18.6465 4.42073 18.6354 4.41252 18.6226 4.40876H18.6214Z" fill="#3C4A3E"/>
</svg>
