<svg width="54" height="45" viewBox="0 0 54 45" fill="none" xmlns="http://www.w3.org/2000/svg">
<rect x="11" width="8" height="22" rx="4" fill="#B65D38"/>
<rect x="35" width="8" height="22" rx="4" fill="#B65D38"/>
<path fill-rule="evenodd" clip-rule="evenodd" d="M26.9999 1.01888C18.1634 1.01888 10.9999 8.18232 10.9999 17.0189V19.5391C7.43829 21.3598 5 25.065 5 29.3396C5 35.4148 9.92487 40.3396 16 40.3396H38C44.0751 40.3396 49 35.4148 49 29.3396C49 25.0649 46.5616 21.3597 42.9999 19.539V17.0189C42.9999 8.18232 35.8365 1.01888 26.9999 1.01888Z" fill="#E68A63"/>
<rect x="19" y="3" width="16" height="35.6604" rx="8" fill="#F79972"/>
<rect x="15" y="16" width="4" height="6" rx="2" fill="#272423"/>
<rect x="35" y="16" width="4" height="6" rx="2" fill="#272423"/>
<path d="M27.7804 24.5356C27.3975 24.8671 26.8292 24.8671 26.4463 24.5356L23.885 22.3174C23.1719 21.6998 23.6086 20.5283 24.552 20.5283L29.6747 20.5283C30.6181 20.5283 31.0548 21.6998 30.3417 22.3174L27.7804 24.5356Z" fill="#B65D38"/>
<path fill-rule="evenodd" clip-rule="evenodd" d="M27.1572 25.0008C27.13 25.0003 27.1028 25 27.0755 25C27.0482 25 27.021 25.0003 26.9938 25.0008C26.6211 26.8349 25.0167 28.2215 23.0817 28.2596C23.0281 28.5232 23 28.796 23 29.0755V29.8906C23 32.1414 24.8247 33.966 27.0755 33.966C29.3263 33.966 31.1509 32.1414 31.1509 29.8906V29.0755C31.1509 28.796 31.1228 28.5232 31.0693 28.2596C29.1343 28.2215 27.5298 26.8349 27.1572 25.0008Z" fill="white"/>
<path d="M0 44.717C0 41.4033 2.68629 38.717 6 38.717H48C51.3137 38.717 54 41.4033 54 44.717H0Z" fill="#EFD3B9"/>
</svg>
