<svg width="22" height="22" viewBox="0 0 22 22" fill="none" xmlns="http://www.w3.org/2000/svg">
<path d="M20.1667 19.25H1.83333C1.3471 19.25 0.880788 19.0513 0.536971 18.6977C0.193155 18.3441 0 17.8644 0 17.3643V7.28986L6.60917 12.1456C7.89032 13.087 9.42548 14.2083 11 14.2083C12.5745 14.2083 14.1097 13.087 15.3908 12.1456L22 7.28986V17.3643C22 17.8644 21.8068 18.3441 21.463 18.6977C21.1192 19.0513 20.6529 19.25 20.1667 19.25ZM1.83333 2.75H20.1667C20.6529 2.75 21.1192 2.94867 21.463 3.30231C21.8068 3.65595 22 4.13559 22 4.63571V5.01286L13.2596 11.4337C12.597 11.9097 11.8082 12.165 11 12.165C10.1918 12.165 9.40304 11.9097 8.74042 11.4337L0 5.01286V4.63571C0 4.13559 0.193155 3.65595 0.536971 3.30231C0.880788 2.94867 1.3471 2.75 1.83333 2.75Z" fill="#3C4A3E"/>
</svg>
