<svg width="22" height="22" viewBox="0 0 22 22" fill="none" xmlns="http://www.w3.org/2000/svg">
<path fill-rule="evenodd" clip-rule="evenodd" d="M6.67294 16.6467C9.75101 16.6467 12.2463 14.1514 12.2463 11.0733C12.2463 7.99527 9.75101 5.5 6.67294 5.5C3.59488 5.5 1.09961 7.99527 1.09961 11.0733C1.09961 14.1514 3.59488 16.6467 6.67294 16.6467ZM15.5777 16.3114C17.1167 16.3114 18.3644 13.9475 18.3644 11.0314C18.3644 8.11536 17.1167 5.75143 15.5777 5.75143C14.0387 5.75143 12.791 8.11536 12.791 11.0314C12.791 13.9475 14.0387 16.3114 15.5777 16.3114ZM20.8996 11.0733C20.8996 13.9894 20.4493 16.3533 19.8939 16.3533C19.3385 16.3533 18.8882 13.9894 18.8882 11.0733C18.8882 8.15727 19.3385 5.79333 19.8939 5.79333C20.4493 5.79333 20.8996 8.15727 20.8996 11.0733Z" fill="#3C4A3E"/>
</svg>
