<svg width="22" height="22" viewBox="0 0 22 22" fill="none" xmlns="http://www.w3.org/2000/svg">
<path d="M22 4.04163C21.1906 4.40097 20.3207 4.64297 19.4077 4.75205C20.3399 4.1938 21.0558 3.30922 21.3923 2.25505C20.5205 2.77205 19.5543 3.14788 18.5258 3.35047C17.7036 2.47322 16.5293 1.92505 15.2313 1.92505C12.3172 1.92505 10.1759 4.64388 10.8341 7.4663C7.084 7.27838 3.75833 5.48172 1.53175 2.75097C0.34925 4.77955 0.9185 7.4333 2.92783 8.77713C2.189 8.7533 1.49233 8.55071 0.884583 8.21246C0.835083 10.3034 2.33383 12.2595 4.5045 12.695C3.86925 12.8673 3.1735 12.9076 2.46583 12.772C3.03967 14.565 4.70617 15.8694 6.6825 15.906C4.785 17.3938 2.39433 18.0584 0 17.776C1.99742 19.0566 4.37067 19.8037 6.919 19.8037C15.2992 19.8037 20.0338 12.7261 19.7477 6.37821C20.6296 5.74113 21.395 4.94638 22 4.04163Z" fill="#3C4A3E"/>
</svg>
