<svg width="315" height="100" viewBox="0 0 315 100" fill="none" xmlns="http://www.w3.org/2000/svg">
<path fill-rule="evenodd" clip-rule="evenodd" d="M1.58057 62.5066L33.7037 22.2054L53.9924 36.5632L54.9216 38.0426C44.4424 42.5864 37.1058 53.0292 37.1058 65.1727C37.1058 81.4969 50.3565 94.7476 66.6771 94.7476C69.244 94.7476 71.7356 94.4199 74.1103 93.7998C66.9614 97.7591 58.7427 100 50.0022 100C26.724 100 7.14036 84.0655 1.58057 62.5066ZM74.973 65.1727C81.7843 65.1727 87.3148 70.7085 87.3148 77.5198C87.3148 84.3312 81.7843 89.8583 74.973 89.8583C68.1607 89.8583 62.6302 84.3312 62.6302 77.5198C62.6302 70.7085 68.1607 65.1727 74.973 65.1727Z" fill="url(#paint0_linear_3936_2139)"/>
<path fill-rule="evenodd" clip-rule="evenodd" d="M9.52614 79.2649C3.51905 71.063 0 60.9389 0 50.0001C0 22.4004 22.4057 0 50.0027 0C63.8211 0 76.3375 5.61556 85.3906 14.6944L89.1462 19.0257C90.31 20.372 90.5058 22.303 89.636 23.853C89.0133 24.9602 88.2348 26.3508 87.3871 27.8566C82.5545 36.4748 73.4473 41.807 63.5704 41.807H46.3393C30.0992 41.807 15.853 52.6395 11.512 68.2905C10.5129 71.8955 9.84412 75.5625 9.52614 79.2649Z" fill="#5FD04F"/>
<path d="M161.12 50C161.12 47.3516 158.767 45.4545 156.119 45.4545H138.818C135.994 45.4545 133.704 47.744 133.704 50.5682V50.5682C133.704 53.3924 135.994 55.6818 138.818 55.6818H149.125C148.126 61.2926 143.271 64.7727 137.131 64.7727C129.278 64.7727 123.423 58.1676 123.423 50C123.423 41.8324 129.135 35.2273 137.131 35.2273C141.113 35.2273 143.899 36.6052 145.949 38.5084C147.739 40.1704 150.166 41.2117 152.507 40.5162V40.5162C155.797 39.5388 157.414 35.7601 155.162 33.17C150.798 28.1496 144.614 25 137.131 25C123.28 25 112 36.2216 112 50C112 63.7784 123.28 75 137.131 75C150.982 75 161.12 63.7784 161.12 50V50Z" fill="#44A536"/>
<path d="M191.388 25C177.18 25 165.686 36.2216 165.686 50C165.686 63.7784 177.18 75 191.388 75C205.596 75 217.09 63.7784 217.09 50C217.09 36.2216 205.596 25 191.388 25ZM191.388 64.7727C183.535 64.7727 177.109 58.1676 177.109 50C177.109 41.8324 183.535 35.2273 191.388 35.2273C199.241 35.2273 205.667 41.8324 205.667 50C205.667 58.1676 199.241 64.7727 191.388 64.7727Z" fill="#44A536"/>
<path d="M254.17 48.7926C257.526 47.2301 259.953 42.6847 259.953 38.6364C259.953 29.6875 252.671 26.1364 241.676 26.1364H226.268C224.684 26.1364 223.399 27.4208 223.399 29.0052V70.9948C223.399 72.5792 224.684 73.8636 226.268 73.8636H245.817C256.098 73.8636 262.238 67.7557 262.238 59.517C262.238 54.7585 259.739 50.5682 254.17 48.7926ZM234.822 36.3636H241.676C246.031 36.3636 248.53 37.358 248.53 40.2699C248.53 43.0398 246.031 44.3182 241.676 44.3182H234.822V36.3636ZM242.819 63.6364H234.822V54.5455H242.819C247.674 54.5455 250.815 55.8949 250.815 59.0199C250.815 62.2869 247.674 63.6364 242.819 63.6364Z" fill="#44A536"/>
<path d="M296.462 26.1364C295.951 26.1364 295.479 26.4082 295.222 26.85L285.07 44.3182L274.918 26.85C274.662 26.4082 274.189 26.1364 273.678 26.1364H263.71C262.575 26.1364 261.889 27.3923 262.503 28.3469L279.358 54.5455V71.712C279.358 72.9003 280.322 73.8636 281.51 73.8636H288.63C289.818 73.8636 290.782 72.9003 290.782 71.712V54.5455L307.637 28.3469C308.251 27.3923 307.565 26.1364 306.43 26.1364H296.462Z" fill="#44A536"/>
<defs>
<linearGradient id="paint0_linear_3936_2139" x1="21.9419" y1="50.6658" x2="30.3197" y2="61.4373" gradientUnits="userSpaceOnUse">
<stop stop-color="#469F39"/>
<stop offset="1" stop-color="#4AB93A"/>
</linearGradient>
</defs>
</svg>
