<svg width="100" height="100" viewBox="0 0 100 100" fill="none" xmlns="http://www.w3.org/2000/svg">
<path fill-rule="evenodd" clip-rule="evenodd" d="M1.58057 62.5066L33.7037 22.2054L53.9924 36.5632L54.9216 38.0426C44.4424 42.5864 37.1058 53.0292 37.1058 65.1727C37.1058 81.4969 50.3565 94.7476 66.6771 94.7476C69.244 94.7476 71.7356 94.4199 74.1103 93.7998C66.9614 97.7591 58.7427 100 50.0022 100C26.724 100 7.14036 84.0655 1.58057 62.5066ZM74.973 65.1727C81.7843 65.1727 87.3148 70.7085 87.3148 77.5198C87.3148 84.3312 81.7843 89.8583 74.973 89.8583C68.1607 89.8583 62.6302 84.3312 62.6302 77.5198C62.6302 70.7085 68.1607 65.1727 74.973 65.1727Z" fill="url(#paint0_linear_3936_2134)"/>
<path fill-rule="evenodd" clip-rule="evenodd" d="M9.52614 79.2649C3.51905 71.063 0 60.9389 0 50.0001C0 22.4004 22.4057 0 50.0027 0C63.8211 0 76.3375 5.61556 85.3906 14.6944L89.1462 19.0257C90.31 20.372 90.5058 22.303 89.636 23.853C89.0133 24.9602 88.2348 26.3508 87.3871 27.8566C82.5545 36.4748 73.4473 41.807 63.5704 41.807H46.3393C30.0992 41.807 15.853 52.6395 11.512 68.2905C10.5129 71.8955 9.84412 75.5625 9.52614 79.2649Z" fill="#5FD04F"/>
<defs>
<linearGradient id="paint0_linear_3936_2134" x1="21.9419" y1="50.6658" x2="30.3197" y2="61.4373" gradientUnits="userSpaceOnUse">
<stop stop-color="#469F39"/>
<stop offset="1" stop-color="#4AB93A"/>
</linearGradient>
</defs>
</svg>
